# Blender v2.83.0 OBJ File: ''
# www.blender.org
mtllib portal_frame.mtl
o Cylinder
v -0.300000 0.000000 -2.250000
v 0.300000 -0.000000 -2.250000
v -0.300000 -0.829134 -2.206767
v 0.300000 -0.829134 -2.206767
v -0.300000 -1.626405 -2.078729
v 0.300000 -1.626405 -2.078729
v -0.300000 -2.361174 -1.870807
v 0.300000 -2.361174 -1.870807
v -0.300000 -3.005204 -1.590990
v 0.300000 -3.005204 -1.590990
v -0.300000 -3.533746 -1.250033
v 0.300000 -3.533746 -1.250033
v -0.300000 -3.926488 -0.861038
v 0.300000 -3.926488 -0.861038
v -0.300000 -4.168337 -0.438953
v 0.300000 -4.168337 -0.438953
v -0.300000 -4.250000 -0.000000
v 0.300000 -4.250000 -0.000000
v -0.300000 -4.168337 0.438953
v 0.300000 -4.168337 0.438953
v -0.300000 -3.926488 0.861037
v 0.300000 -3.926488 0.861037
v -0.300000 -3.533746 1.250033
v 0.300000 -3.533746 1.250033
v -0.300000 -3.005204 1.590990
v 0.300000 -3.005204 1.590990
v -0.300000 -2.361173 1.870807
v 0.300000 -2.361173 1.870807
v -0.300000 -1.626404 2.078729
v 0.300000 -1.626404 2.078729
v -0.300000 -0.829133 2.206767
v 0.300000 -0.829133 2.206767
v -0.300000 0.000001 2.250000
v 0.300000 0.000001 2.250000
v -0.300000 0.829136 2.206767
v 0.300000 0.829136 2.206767
v -0.300000 1.626406 2.078728
v 0.300000 1.626406 2.078728
v -0.300000 2.361176 1.870806
v 0.300000 2.361176 1.870806
v -0.300000 3.005206 1.590989
v 0.300000 3.005206 1.590989
v -0.300000 3.533748 1.250032
v 0.300000 3.533748 1.250032
v -0.300000 3.926489 0.861036
v 0.300000 3.926489 0.861036
v -0.300000 4.168338 0.438951
v 0.300000 4.168338 0.438951
v -0.300000 4.250000 -0.000002
v 0.300000 4.250000 -0.000002
v -0.300000 4.168336 -0.438956
v 0.300000 4.168336 -0.438956
v -0.300000 3.926486 -0.861040
v 0.300000 3.926486 -0.861040
v -0.300000 3.533743 -1.250035
v 0.300000 3.533743 -1.250035
v -0.300000 3.005200 -1.590992
v 0.300000 3.005200 -1.590992
v -0.300000 2.361169 -1.870808
v 0.300000 2.361169 -1.870808
v -0.300000 1.626399 -2.078730
v 0.300000 1.626399 -2.078730
v -0.300000 0.829127 -2.206768
v 0.300000 0.829127 -2.206768
v 0.300000 3.695516 -0.765369
v -0.300000 3.695516 -0.765369
v 0.300000 3.325876 -1.111142
v -0.300000 3.325876 -1.111142
v 0.300000 -1.530734 -1.847759
v -0.300000 -1.530734 -1.847759
v 0.300000 -0.780361 -1.961571
v -0.300000 -0.780361 -1.961570
v 0.300000 3.923140 -0.390183
v -0.300000 3.923140 -0.390183
v 0.300000 -2.828427 -1.414213
v -0.300000 -2.828427 -1.414213
v 0.300000 -2.222281 1.662939
v -0.300000 -2.222281 1.662939
v 0.300000 -1.530733 1.847759
v -0.300000 -1.530733 1.847759
v 0.300000 -3.325879 -1.111140
v -0.300000 -3.325879 -1.111140
v 0.300000 -0.780360 1.961571
v -0.300000 -0.780360 1.961571
v 0.300000 1.530735 1.847759
v -0.300000 1.530735 1.847758
v 0.300000 4.000000 -0.000002
v -0.300000 4.000000 -0.000002
v 0.300000 1.530728 -1.847760
v -0.300000 1.530728 -1.847760
v 0.300000 2.222283 1.662938
v -0.300000 2.222283 1.662938
v 0.300000 -3.923141 0.390180
v -0.300000 -3.923141 0.390180
v 0.300000 -2.828427 1.414213
v -0.300000 -2.828427 1.414213
v 0.300000 -3.695518 0.765367
v -0.300000 -3.695518 0.765367
v 0.300000 -4.000000 -0.000000
v -0.300000 -4.000000 -0.000000
v 0.300000 2.828424 -1.414215
v -0.300000 2.828424 -1.414215
v 0.300000 2.222276 -1.662941
v -0.300000 2.222276 -1.662941
v 0.300000 0.000001 2.000000
v -0.300000 0.000001 2.000000
v 0.300000 -0.000000 -2.000000
v -0.300000 0.000000 -2.000000
v 0.300000 -3.923141 -0.390181
v -0.300000 -3.923141 -0.390181
v 0.300000 -2.222281 -1.662939
v -0.300000 -2.222281 -1.662939
v 0.300000 -3.695518 -0.765367
v -0.300000 -3.695518 -0.765367
v 0.300000 3.695519 0.765365
v -0.300000 3.695519 0.765365
v 0.300000 3.325880 1.111139
v -0.300000 3.325880 1.111139
v 0.300000 3.923142 0.390179
v -0.300000 3.923142 0.390179
v 0.300000 2.828429 1.414213
v -0.300000 2.828429 1.414213
v 0.300000 0.780363 1.961570
v -0.300000 0.780363 1.961570
v 0.300000 -3.325879 1.111140
v -0.300000 -3.325879 1.111140
v 0.300000 0.780355 -1.961571
v -0.300000 0.780355 -1.961571
vt 1.000000 1.000000
vt 0.968750 0.500000
vt 1.000000 0.500000
vt 0.968750 1.000000
vt 0.937500 0.500000
vt 0.937500 1.000000
vt 0.906250 0.500000
vt 0.906250 1.000000
vt 0.875000 0.500000
vt 0.875000 1.000000
vt 0.843750 0.500000
vt 0.843750 1.000000
vt 0.812500 0.500000
vt 0.812500 1.000000
vt 0.781250 0.500000
vt 0.781250 1.000000
vt 0.750000 0.500000
vt 0.750000 1.000000
vt 0.718750 0.500000
vt 0.718750 1.000000
vt 0.687500 0.500000
vt 0.687500 1.000000
vt 0.656250 0.500000
vt 0.656250 1.000000
vt 0.625000 0.500000
vt 0.625000 1.000000
vt 0.593750 0.500000
vt 0.593750 1.000000
vt 0.562500 0.500000
vt 0.562500 1.000000
vt 0.531250 0.500000
vt 0.531250 1.000000
vt 0.500000 0.500000
vt 0.500000 1.000000
vt 0.468750 0.500000
vt 0.468750 1.000000
vt 0.437500 0.500000
vt 0.437500 1.000000
vt 0.406250 0.500000
vt 0.406250 1.000000
vt 0.375000 0.500000
vt 0.375000 1.000000
vt 0.343750 0.500000
vt 0.343750 1.000000
vt 0.312500 0.500000
vt 0.312500 1.000000
vt 0.281250 0.500000
vt 0.281250 1.000000
vt 0.250000 0.500000
vt 0.250000 1.000000
vt 0.218750 0.500000
vt 0.218750 1.000000
vt 0.187500 0.500000
vt 0.187500 1.000000
vt 0.156250 0.500000
vt 0.156250 1.000000
vt 0.125000 0.500000
vt 0.125000 1.000000
vt 0.093750 0.500000
vt 0.093750 1.000000
vt 0.062500 0.500000
vt 0.294067 0.459234
vt 0.336441 0.447094
vt 0.341844 0.471731
vt 0.062500 1.000000
vt 0.031250 0.500000
vt 0.031250 1.000000
vt 0.000000 0.500000
vt 0.796822 0.485388
vt 0.794067 0.459234
vt 0.750000 0.463334
vt 0.718750 0.875000
vt 0.750000 0.625000
vt 0.718750 0.625000
vt 0.625000 0.875000
vt 0.656250 0.625000
vt 0.625000 0.625000
vt 0.656250 0.875000
vt 0.687500 0.625000
vt 0.218750 0.625000
vt 0.250000 0.875000
vt 0.250000 0.625000
vt 0.781250 0.875000
vt 0.812500 0.625000
vt 0.781250 0.625000
vt 0.750000 0.875000
vt 0.843750 0.875000
vt 0.875000 0.625000
vt 0.843750 0.625000
vt 0.000000 0.875000
vt 0.031250 0.625000
vt 0.000000 0.625000
vt 0.468750 0.875000
vt 0.500000 0.625000
vt 0.468750 0.625000
vt 0.156250 0.625000
vt 0.187500 0.875000
vt 0.187500 0.625000
vt 0.500000 0.875000
vt 0.531250 0.625000
vt 0.031250 0.875000
vt 0.062500 0.625000
vt 0.875000 0.875000
vt 0.906250 0.625000
vt 0.406250 0.625000
vt 0.437500 0.875000
vt 0.437500 0.625000
vt 0.250000 0.036667
vt 0.205932 0.040766
vt 0.203178 0.014612
vt 0.906250 0.875000
vt 0.937500 0.625000
vt 0.593750 0.875000
vt 0.593750 0.625000
vt 0.093750 0.875000
vt 0.125000 0.625000
vt 0.093750 0.625000
vt 0.562500 0.875000
vt 0.562500 0.625000
vt 0.375000 0.875000
vt 0.375000 0.625000
vt 0.312500 0.875000
vt 0.343750 0.625000
vt 0.312500 0.625000
vt 0.968750 0.875000
vt 1.000000 0.625000
vt 0.968750 0.625000
vt 0.812500 0.875000
vt 0.281250 0.625000
vt 0.687500 0.875000
vt 0.062500 0.875000
vt 0.937500 0.875000
vt 0.281250 0.875000
vt 0.125000 0.875000
vt 0.343750 0.875000
vt 0.750000 0.036667
vt 0.794067 0.040766
vt 0.796822 0.014612
vt 0.296822 0.485388
vt 0.250000 0.490000
vt 0.250000 0.463334
vt 0.203179 0.485389
vt 0.158156 0.471731
vt 0.205933 0.459234
vt 0.116663 0.449553
vt 0.163559 0.447094
vt 0.080295 0.419706
vt 0.124507 0.427380
vt 0.050447 0.383337
vt 0.090277 0.400850
vt 0.028269 0.341844
vt 0.062186 0.368522
vt 0.014612 0.296822
vt 0.041312 0.331639
vt 0.010000 0.250000
vt 0.028458 0.291619
vt 0.024118 0.250000
vt 0.419706 0.419706
vt 0.383337 0.449553
vt 0.375493 0.427380
vt 0.471731 0.341844
vt 0.449553 0.383337
vt 0.437814 0.368522
vt 0.409723 0.400849
vt 0.490000 0.250000
vt 0.485388 0.296822
vt 0.471542 0.291619
vt 0.458688 0.331639
vt 0.475882 0.250000
vt 0.000000 1.000000
vt 0.703179 0.485389
vt 0.750000 0.490000
vt 0.841844 0.471731
vt 0.883337 0.449553
vt 0.836442 0.447094
vt 0.919706 0.419706
vt 0.875493 0.427380
vt 0.949553 0.383337
vt 0.909723 0.400850
vt 0.971731 0.341844
vt 0.937814 0.368521
vt 0.985388 0.296822
vt 0.958688 0.331639
vt 0.990000 0.250000
vt 0.971542 0.291619
vt 0.975882 0.250000
vt 0.658156 0.471731
vt 0.705933 0.459234
vt 0.580295 0.419706
vt 0.616663 0.449553
vt 0.624507 0.427380
vt 0.663559 0.447094
vt 0.528269 0.341844
vt 0.550447 0.383337
vt 0.562186 0.368522
vt 0.590277 0.400850
vt 0.510000 0.250000
vt 0.514612 0.296822
vt 0.528458 0.291619
vt 0.541312 0.331639
vt 0.524118 0.250000
vt 0.218750 0.875000
vt 0.156250 0.875000
vt 0.531250 0.875000
vt 0.406250 0.875000
vt 0.485388 0.203178
vt 0.471542 0.208381
vt 0.449553 0.116663
vt 0.471731 0.158156
vt 0.437814 0.131478
vt 0.458688 0.168361
vt 0.383337 0.050447
vt 0.419706 0.080294
vt 0.375494 0.072620
vt 0.409723 0.099151
vt 0.296822 0.014612
vt 0.341844 0.028269
vt 0.294067 0.040766
vt 0.336442 0.052906
vt 0.250000 0.010000
vt 0.116663 0.050447
vt 0.158156 0.028269
vt 0.163558 0.052906
vt 0.050447 0.116663
vt 0.080294 0.080294
vt 0.090277 0.099151
vt 0.124506 0.072620
vt 0.014611 0.203179
vt 0.028269 0.158156
vt 0.041312 0.168361
vt 0.062186 0.131478
vt 0.028458 0.208381
vt 1.000000 0.875000
vt 0.514611 0.203179
vt 0.528458 0.208381
vt 0.550447 0.116663
vt 0.528269 0.158156
vt 0.562186 0.131478
vt 0.541312 0.168361
vt 0.616663 0.050447
vt 0.580294 0.080294
vt 0.624506 0.072620
vt 0.590277 0.099151
vt 0.703178 0.014612
vt 0.658156 0.028269
vt 0.705932 0.040766
vt 0.663558 0.052906
vt 0.750000 0.010000
vt 0.883337 0.050447
vt 0.841844 0.028269
vt 0.836442 0.052906
vt 0.949553 0.116663
vt 0.919706 0.080294
vt 0.909723 0.099151
vt 0.875494 0.072620
vt 0.985388 0.203178
vt 0.971731 0.158156
vt 0.958688 0.168361
vt 0.937814 0.131478
vt 0.971542 0.208381
vn 0.0000 -0.0521 -0.9986
vn 0.0000 -0.1586 -0.9873
vn 0.0000 -0.2723 -0.9622
vn 0.0000 -0.3985 -0.9172
vn 0.0000 -0.5421 -0.8403
vn 0.0000 -0.7037 -0.7105
vn 0.0000 -0.8677 -0.4972
vn 0.0000 -0.9831 -0.1829
vn 0.0000 -0.9831 0.1829
vn 0.0000 -0.8677 0.4972
vn 0.0000 -0.7037 0.7105
vn 0.0000 -0.5421 0.8403
vn 0.0000 -0.3985 0.9172
vn 0.0000 -0.2723 0.9622
vn 0.0000 -0.1586 0.9873
vn 0.0000 -0.0521 0.9986
vn 0.0000 0.0521 0.9986
vn 0.0000 0.1586 0.9873
vn 0.0000 0.2723 0.9622
vn 0.0000 0.3985 0.9172
vn 0.0000 0.5421 0.8403
vn 0.0000 0.7037 0.7105
vn 0.0000 0.8677 0.4972
vn 0.0000 0.9831 0.1829
vn 0.0000 0.9831 -0.1829
vn 0.0000 0.8677 -0.4972
vn 0.0000 0.7037 -0.7105
vn 0.0000 0.5421 -0.8403
vn 0.0000 0.3985 -0.9172
vn 0.0000 0.2723 -0.9622
vn 1.0000 0.0000 -0.0000
vn 0.0000 0.1586 -0.9873
vn 0.0000 0.0521 -0.9986
vn -1.0000 0.0000 -0.0000
vn 0.0000 0.9811 -0.1933
vn 0.0000 0.5203 -0.8540
vn -0.0000 0.6831 -0.7303
vn 0.0000 -0.9811 0.1933
vn 0.0000 0.8550 0.5187
vn -0.0000 0.9811 0.1933
vn 0.0000 0.5203 0.8540
vn 0.0000 -0.0492 0.9988
vn 0.0000 -0.0492 -0.9988
vn 0.0000 -0.6831 0.7303
vn 0.0000 0.0492 -0.9988
vn 0.0000 -0.1500 0.9887
vn 0.0000 0.3796 0.9251
vn 0.0000 -0.2582 -0.9661
vn 0.0000 0.2582 0.9661
vn 0.0000 0.3796 -0.9251
vn 0.0000 -0.3796 0.9251
vn 0.0000 -0.8550 0.5187
vn 0.0000 0.2582 -0.9661
vn 0.0000 -0.3796 -0.9251
vn 0.0000 -0.6831 -0.7303
vn 0.0000 0.0492 0.9988
vn 0.0000 0.6831 0.7303
vn 0.0000 -0.9811 -0.1933
vn 0.0000 0.8550 -0.5187
vn 0.0000 -0.1500 -0.9887
vn 0.0000 -0.2582 0.9661
vn -0.0000 0.1500 0.9887
vn 0.0000 0.1500 -0.9887
vn 0.0000 -0.8550 -0.5187
vn 0.0000 -0.5203 0.8540
vn -0.0000 -0.5203 -0.8540
usemtl None
s off
f 2/1/1 3/2/1 1/3/1
f 4/4/2 5/5/2 3/2/2
f 6/6/3 7/7/3 5/5/3
f 8/8/4 9/9/4 7/7/4
f 10/10/5 11/11/5 9/9/5
f 12/12/6 13/13/6 11/11/6
f 14/14/7 15/15/7 13/13/7
f 16/16/8 17/17/8 15/15/8
f 18/18/9 19/19/9 17/17/9
f 20/20/10 21/21/10 19/19/10
f 22/22/11 23/23/11 21/21/11
f 24/24/12 25/25/12 23/23/12
f 26/26/13 27/27/13 25/25/13
f 28/28/14 29/29/14 27/27/14
f 30/30/15 31/31/15 29/29/15
f 32/32/16 33/33/16 31/31/16
f 34/34/17 35/35/17 33/33/17
f 36/36/18 37/37/18 35/35/18
f 38/38/19 39/39/19 37/37/19
f 40/40/20 41/41/20 39/39/20
f 42/42/21 43/43/21 41/41/21
f 44/44/22 45/45/22 43/43/22
f 46/46/23 47/47/23 45/45/23
f 48/48/24 49/49/24 47/47/24
f 50/50/25 51/51/25 49/49/25
f 52/52/26 53/53/26 51/51/26
f 54/54/27 55/55/27 53/53/27
f 56/56/28 57/57/28 55/55/28
f 58/58/29 59/59/29 57/57/29
f 60/60/30 61/61/30 59/59/30
f 71/62/31 69/63/31 6/64/31
f 62/65/32 63/66/32 61/61/32
f 64/67/33 1/68/33 63/66/33
f 3/69/34 72/70/34 108/71/34
f 93/72/35 100/73/35 94/74/35
f 95/75/36 126/76/36 96/77/36
f 125/78/37 98/79/37 126/76/37
f 74/80/38 87/81/38 88/82/38
f 109/83/39 114/84/39 110/85/39
f 99/86/40 110/85/40 100/73/40
f 81/87/41 76/88/41 82/89/41
f 107/90/42 128/91/42 108/92/42
f 123/93/43 106/94/43 124/95/43
f 68/96/44 65/97/44 66/98/44
f 105/99/45 84/100/45 106/94/45
f 127/101/46 90/102/46 128/91/46
f 75/103/47 112/104/47 76/88/47
f 92/105/48 85/106/48 86/107/48
f 105/108/31 123/109/31 36/110/31
f 111/111/49 70/112/49 112/104/49
f 77/113/50 96/77/50 78/114/50
f 103/115/51 102/116/51 104/117/51
f 65/97/52 74/80/52 66/98/52
f 79/118/53 78/114/53 80/119/53
f 121/120/54 92/105/54 122/121/54
f 115/122/55 118/123/55 116/124/55
f 71/125/56 108/126/56 72/127/56
f 113/128/57 82/89/57 114/84/57
f 87/81/58 120/129/58 88/82/58
f 97/130/59 94/74/59 98/79/59
f 85/106/60 124/95/60 86/107/60
f 89/131/61 104/117/61 90/102/61
f 69/132/62 72/127/62 70/112/62
f 84/100/63 79/118/63 80/119/63
f 119/133/64 116/124/64 120/129/64
f 101/134/65 68/96/65 102/116/65
f 117/135/66 122/121/66 118/123/66
f 106/136/34 84/137/34 31/138/34
f 2/1/1 4/4/1 3/2/1
f 4/4/2 6/6/2 5/5/2
f 6/6/3 8/8/3 7/7/3
f 8/8/4 10/10/4 9/9/4
f 10/10/5 12/12/5 11/11/5
f 12/12/6 14/14/6 13/13/6
f 14/14/7 16/16/7 15/15/7
f 16/16/8 18/18/8 17/17/8
f 18/18/9 20/20/9 19/19/9
f 20/20/10 22/22/10 21/21/10
f 22/22/11 24/24/11 23/23/11
f 24/24/12 26/26/12 25/25/12
f 26/26/13 28/28/13 27/27/13
f 28/28/14 30/30/14 29/29/14
f 30/30/15 32/32/15 31/31/15
f 32/32/16 34/34/16 33/33/16
f 34/34/17 36/36/17 35/35/17
f 36/36/18 38/38/18 37/37/18
f 38/38/19 40/40/19 39/39/19
f 40/40/20 42/42/20 41/41/20
f 42/42/21 44/44/21 43/43/21
f 44/44/22 46/46/22 45/45/22
f 46/46/23 48/48/23 47/47/23
f 48/48/24 50/50/24 49/49/24
f 50/50/25 52/52/25 51/51/25
f 52/52/26 54/54/26 53/53/26
f 54/54/27 56/56/27 55/55/27
f 56/56/28 58/58/28 57/57/28
f 58/58/29 60/60/29 59/59/29
f 60/60/30 62/65/30 61/61/30
f 6/64/31 4/139/31 71/62/31
f 4/139/31 2/140/31 107/141/31
f 2/140/31 64/142/31 107/141/31
f 64/142/31 62/143/31 127/144/31
f 107/141/31 64/142/31 127/144/31
f 62/143/31 60/145/31 89/146/31
f 60/145/31 58/147/31 103/148/31
f 58/147/31 56/149/31 101/150/31
f 56/149/31 54/151/31 67/152/31
f 101/150/31 56/149/31 67/152/31
f 54/151/31 52/153/31 65/154/31
f 52/153/31 50/155/31 73/156/31
f 65/154/31 52/153/31 73/156/31
f 50/155/31 87/157/31 73/156/31
f 60/145/31 103/148/31 89/146/31
f 4/139/31 107/141/31 71/62/31
f 10/158/31 8/159/31 111/160/31
f 8/159/31 6/64/31 69/63/31
f 111/160/31 8/159/31 69/63/31
f 14/161/31 12/162/31 81/163/31
f 12/162/31 10/158/31 75/164/31
f 18/165/31 16/166/31 109/167/31
f 16/166/31 14/161/31 113/168/31
f 109/167/31 99/169/31 18/165/31
f 113/168/31 109/167/31 16/166/31
f 12/162/31 75/164/31 81/163/31
f 75/164/31 10/158/31 111/160/31
f 54/151/31 65/154/31 67/152/31
f 81/163/31 113/168/31 14/161/31
f 58/147/31 101/150/31 103/148/31
f 62/143/31 89/146/31 127/144/31
f 62/65/32 64/67/32 63/66/32
f 64/67/33 2/170/33 1/68/33
f 63/171/34 1/172/34 108/71/34
f 1/172/34 3/69/34 108/71/34
f 3/69/34 5/173/34 72/70/34
f 5/173/34 7/174/34 70/175/34
f 7/174/34 9/176/34 112/177/34
f 9/176/34 11/178/34 76/179/34
f 112/177/34 9/176/34 76/179/34
f 11/178/34 13/180/34 82/181/34
f 13/180/34 15/182/34 114/183/34
f 15/182/34 17/184/34 110/185/34
f 17/184/34 100/186/34 110/185/34
f 5/173/34 70/175/34 72/70/34
f 61/187/34 63/171/34 128/188/34
f 128/188/34 63/171/34 108/71/34
f 57/189/34 59/190/34 104/191/34
f 59/190/34 61/187/34 90/192/34
f 104/191/34 59/190/34 90/192/34
f 53/193/34 55/194/34 68/195/34
f 55/194/34 57/189/34 102/196/34
f 49/197/34 51/198/34 74/199/34
f 51/198/34 53/193/34 66/200/34
f 74/199/34 88/201/34 49/197/34
f 66/200/34 74/199/34 51/198/34
f 55/194/34 102/196/34 68/195/34
f 102/196/34 57/189/34 104/191/34
f 13/180/34 114/183/34 82/181/34
f 15/182/34 110/185/34 114/183/34
f 68/195/34 66/200/34 53/193/34
f 11/178/34 82/181/34 76/179/34
f 7/174/34 112/177/34 70/175/34
f 90/192/34 61/187/34 128/188/34
f 93/72/35 99/86/35 100/73/35
f 95/75/36 125/78/36 126/76/36
f 125/78/37 97/130/37 98/79/37
f 74/80/38 73/202/38 87/81/38
f 109/83/39 113/128/39 114/84/39
f 99/86/40 109/83/40 110/85/40
f 81/87/41 75/103/41 76/88/41
f 107/90/42 127/101/42 128/91/42
f 123/93/43 105/99/43 106/94/43
f 68/96/44 67/203/44 65/97/44
f 105/99/45 83/204/45 84/100/45
f 127/101/46 89/131/46 90/102/46
f 75/103/47 111/111/47 112/104/47
f 92/105/48 91/205/48 85/106/48
f 20/206/31 18/165/31 93/207/31
f 18/165/31 99/169/31 93/207/31
f 24/208/31 22/209/31 125/210/31
f 22/209/31 20/206/31 97/211/31
f 28/212/31 26/213/31 77/214/31
f 26/213/31 24/208/31 95/215/31
f 32/216/31 30/217/31 83/218/31
f 30/217/31 28/212/31 79/219/31
f 83/218/31 30/217/31 79/219/31
f 36/110/31 34/220/31 105/108/31
f 34/220/31 32/216/31 105/108/31
f 40/221/31 38/222/31 85/223/31
f 38/222/31 36/110/31 123/109/31
f 85/223/31 38/222/31 123/109/31
f 44/224/31 42/225/31 121/226/31
f 42/225/31 40/221/31 91/227/31
f 48/228/31 46/229/31 115/230/31
f 46/229/31 44/224/31 117/231/31
f 115/230/31 46/229/31 117/231/31
f 87/157/31 50/155/31 119/232/31
f 50/155/31 48/228/31 119/232/31
f 42/225/31 91/227/31 121/226/31
f 91/227/31 40/221/31 85/223/31
f 22/209/31 97/211/31 125/210/31
f 20/206/31 93/207/31 97/211/31
f 119/232/31 48/228/31 115/230/31
f 24/208/31 125/210/31 95/215/31
f 121/226/31 117/231/31 44/224/31
f 26/213/31 95/215/31 77/214/31
f 28/212/31 77/214/31 79/219/31
f 32/216/31 83/218/31 105/108/31
f 111/111/49 69/132/49 70/112/49
f 77/113/50 95/75/50 96/77/50
f 103/115/51 101/134/51 102/116/51
f 65/97/52 73/202/52 74/80/52
f 79/118/53 77/113/53 78/114/53
f 121/120/54 91/205/54 92/105/54
f 115/122/55 117/135/55 118/123/55
f 71/125/56 107/233/56 108/126/56
f 113/128/57 81/87/57 82/89/57
f 87/81/58 119/133/58 120/129/58
f 97/130/59 93/72/59 94/74/59
f 85/106/60 123/93/60 124/95/60
f 89/131/61 103/115/61 104/117/61
f 69/132/62 71/125/62 72/127/62
f 84/100/63 83/204/63 79/118/63
f 119/133/64 115/122/64 116/124/64
f 101/134/65 67/203/65 68/96/65
f 117/135/66 121/120/66 122/121/66
f 47/234/34 49/197/34 120/235/34
f 49/197/34 88/201/34 120/235/34
f 43/236/34 45/237/34 118/238/34
f 45/237/34 47/234/34 116/239/34
f 39/240/34 41/241/34 92/242/34
f 41/241/34 43/236/34 122/243/34
f 35/244/34 37/245/34 124/246/34
f 37/245/34 39/240/34 86/247/34
f 124/246/34 37/245/34 86/247/34
f 31/138/34 33/248/34 106/136/34
f 33/248/34 35/244/34 106/136/34
f 27/249/34 29/250/34 80/251/34
f 29/250/34 31/138/34 84/137/34
f 80/251/34 29/250/34 84/137/34
f 23/252/34 25/253/34 96/254/34
f 25/253/34 27/249/34 78/255/34
f 19/256/34 21/257/34 98/258/34
f 21/257/34 23/252/34 126/259/34
f 98/258/34 21/257/34 126/259/34
f 100/186/34 17/184/34 94/260/34
f 17/184/34 19/256/34 94/260/34
f 25/253/34 78/255/34 96/254/34
f 78/255/34 27/249/34 80/251/34
f 45/237/34 116/239/34 118/238/34
f 47/234/34 120/235/34 116/239/34
f 94/260/34 19/256/34 98/258/34
f 43/236/34 118/238/34 122/243/34
f 96/254/34 126/259/34 23/252/34
f 41/241/34 122/243/34 92/242/34
f 39/240/34 92/242/34 86/247/34
f 35/244/34 124/246/34 106/136/34
